<mxfile host="65bd71144e">
    <diagram name="Página-1" id="LHZQOGE_6NusbL_Ne421">
        <mxGraphModel dx="839" dy="607" grid="1" gridSize="10" guides="1" tooltips="1" connect="1" arrows="1" fold="1" page="1" pageScale="1" pageWidth="1169" pageHeight="827" math="0" shadow="0">
            <root>
                <mxCell id="0"/>
                <mxCell id="1" parent="0"/>
                <mxCell id="6" style="edgeStyle=none;html=1;" parent="1" source="ekJRfyjti95Bc3Rd7iP5-1" target="2" edge="1">
                    <mxGeometry relative="1" as="geometry"/>
                </mxCell>
                <mxCell id="9" style="edgeStyle=none;html=1;" parent="1" source="ekJRfyjti95Bc3Rd7iP5-1" edge="1">
                    <mxGeometry relative="1" as="geometry">
                        <mxPoint x="470" y="160" as="targetPoint"/>
                    </mxGeometry>
                </mxCell>
                <mxCell id="22" style="edgeStyle=none;html=1;" parent="1" source="ekJRfyjti95Bc3Rd7iP5-1" target="21" edge="1">
                    <mxGeometry relative="1" as="geometry"/>
                </mxCell>
                <mxCell id="ekJRfyjti95Bc3Rd7iP5-1" value="Subsistema de algo" style="ellipse;whiteSpace=wrap;html=1;" parent="1" vertex="1">
                    <mxGeometry x="140" y="180" width="290" height="150" as="geometry"/>
                </mxCell>
                <mxCell id="ekJRfyjti95Bc3Rd7iP5-8" style="edgeStyle=orthogonalEdgeStyle;rounded=0;orthogonalLoop=1;jettySize=auto;html=1;" parent="1" source="ekJRfyjti95Bc3Rd7iP5-2" target="ekJRfyjti95Bc3Rd7iP5-1" edge="1">
                    <mxGeometry relative="1" as="geometry">
                        <Array as="points">
                            <mxPoint x="75" y="150"/>
                            <mxPoint x="75" y="255"/>
                        </Array>
                    </mxGeometry>
                </mxCell>
                <mxCell id="ekJRfyjti95Bc3Rd7iP5-12" value="Pide" style="edgeLabel;html=1;align=center;verticalAlign=middle;resizable=0;points=[];" parent="ekJRfyjti95Bc3Rd7iP5-8" vertex="1" connectable="0">
                    <mxGeometry x="0.0969" y="-2" relative="1" as="geometry">
                        <mxPoint as="offset"/>
                    </mxGeometry>
                </mxCell>
                <mxCell id="ekJRfyjti95Bc3Rd7iP5-2" value="Cliente" style="shape=umlActor;verticalLabelPosition=bottom;verticalAlign=top;html=1;" parent="1" vertex="1">
                    <mxGeometry x="60" y="80" width="30" height="60" as="geometry"/>
                </mxCell>
                <mxCell id="2" value="Subsitema de &lt;br&gt;RRHH" style="shape=umlActor;verticalLabelPosition=bottom;verticalAlign=top;html=1;" parent="1" vertex="1">
                    <mxGeometry x="270" y="30" width="30" height="60" as="geometry"/>
                </mxCell>
                <mxCell id="7" value="Subsitema de &lt;br&gt;RRHH" style="shape=umlActor;verticalLabelPosition=bottom;verticalAlign=top;html=1;" parent="1" vertex="1">
                    <mxGeometry x="730" y="480" width="30" height="60" as="geometry"/>
                </mxCell>
                <mxCell id="8" value="Subsitema de &lt;br&gt;Autenticación" style="shape=umlActor;verticalLabelPosition=bottom;verticalAlign=top;html=1;" parent="1" vertex="1">
                    <mxGeometry x="470" y="60" width="30" height="60" as="geometry"/>
                </mxCell>
                <mxCell id="14" style="edgeStyle=none;html=1;entryX=0;entryY=0.5;entryDx=0;entryDy=0;" parent="1" source="10" target="11" edge="1">
                    <mxGeometry relative="1" as="geometry"/>
                </mxCell>
                <mxCell id="10" value="Cliente" style="shape=umlActor;verticalLabelPosition=bottom;verticalAlign=top;html=1;" parent="1" vertex="1">
                    <mxGeometry x="90" y="450" width="30" height="60" as="geometry"/>
                </mxCell>
                <mxCell id="15" style="edgeStyle=none;html=1;entryX=-0.001;entryY=0.624;entryDx=0;entryDy=0;entryPerimeter=0;" parent="1" source="11" target="12" edge="1">
                    <mxGeometry relative="1" as="geometry"/>
                </mxCell>
                <mxCell id="19" style="edgeStyle=none;html=1;entryX=0;entryY=0.5;entryDx=0;entryDy=0;" parent="1" source="11" target="17" edge="1">
                    <mxGeometry relative="1" as="geometry"/>
                </mxCell>
                <mxCell id="11" value="Introducir&lt;br&gt;Credenciales" style="ellipse;whiteSpace=wrap;html=1;" parent="1" vertex="1">
                    <mxGeometry x="190" y="430" width="140" height="70" as="geometry"/>
                </mxCell>
                <mxCell id="16" style="edgeStyle=none;html=1;" parent="1" source="12" target="13" edge="1">
                    <mxGeometry relative="1" as="geometry"/>
                </mxCell>
                <mxCell id="12" value="Solicita Validar&lt;br&gt;Credenciales" style="ellipse;whiteSpace=wrap;html=1;" parent="1" vertex="1">
                    <mxGeometry x="420" y="390" width="140" height="70" as="geometry"/>
                </mxCell>
                <mxCell id="13" value="Subsitema de &lt;br&gt;Autenticación" style="shape=umlActor;verticalLabelPosition=bottom;verticalAlign=top;html=1;" parent="1" vertex="1">
                    <mxGeometry x="660" y="340" width="30" height="60" as="geometry"/>
                </mxCell>
                <mxCell id="20" style="edgeStyle=none;html=1;" parent="1" source="17" target="7" edge="1">
                    <mxGeometry relative="1" as="geometry"/>
                </mxCell>
                <mxCell id="17" value="Solicita datos&lt;br&gt;Empleado" style="ellipse;whiteSpace=wrap;html=1;" parent="1" vertex="1">
                    <mxGeometry x="430" y="500" width="140" height="70" as="geometry"/>
                </mxCell>
                <mxCell id="21" value="Sistema&lt;br&gt;LogiRail" style="shape=umlActor;verticalLabelPosition=bottom;verticalAlign=top;html=1;fillColor=#fad9d5;strokeColor=#ae4132;" parent="1" vertex="1">
                    <mxGeometry x="585" y="210" width="30" height="60" as="geometry"/>
                </mxCell>
            </root>
        </mxGraphModel>
    </diagram>
</mxfile>